<svg xmlns="http://www.w3.org/2000/svg" width="50.119" height="50.865" viewBox="0 0 50.119 50.865">
  <path id="ic_android_24px" d="M12.024,38.149a2.344,2.344,0,0,0,2.506,2.119h2.506v7.418a3.5,3.5,0,0,0,3.759,3.179,3.5,3.5,0,0,0,3.759-3.179V40.268h5.012v7.418a3.5,3.5,0,0,0,3.759,3.179,3.5,3.5,0,0,0,3.759-3.179V40.268H39.59A2.344,2.344,0,0,0,42.1,38.149V16.955H12.024ZM5.759,16.955A3.5,3.5,0,0,0,2,20.134V34.97a3.5,3.5,0,0,0,3.759,3.179A3.5,3.5,0,0,0,9.518,34.97V20.134A3.5,3.5,0,0,0,5.759,16.955Zm42.6,0A3.5,3.5,0,0,0,44.6,20.134V34.97a3.5,3.5,0,0,0,3.759,3.179,3.5,3.5,0,0,0,3.759-3.179V20.134A3.5,3.5,0,0,0,48.36,16.955ZM35.906,4.578l3.258-2.755a.941.941,0,0,0,0-1.5,1.4,1.4,0,0,0-1.779,0L33.675,3.455A16.84,16.84,0,0,0,27.06,2.119a17.09,17.09,0,0,0-6.666,1.335L16.66.318a1.4,1.4,0,0,0-1.779,0,.941.941,0,0,0,0,1.5L18.164,4.6a12.19,12.19,0,0,0-6.14,10.237H42.1a12.166,12.166,0,0,0-6.19-10.258ZM22.048,10.6H19.542V8.478h2.506Zm12.53,0H32.072V8.478h2.506Z" transform="translate(-2)" fill="#e92b64"/>
</svg>
