<svg xmlns="http://www.w3.org/2000/svg" width="41.092" height="52.227" viewBox="0 0 41.092 52.227">
  <g id="apple" transform="translate(-5.567)">
    <path id="Path_308" data-name="Path 308" d="M36.8,1.055,36.747,0,35.7.113c-.1.011-10.252,1.234-10.948,12.581l-.07,1.136,1.136-.077C25.931,13.745,37.426,12.828,36.8,1.055ZM34.821,2.322c-.191,6.838-5.511,8.74-7.953,9.253A10.567,10.567,0,0,1,34.821,2.322Z" fill="#d32f2f"/>
    <path id="Path_309" data-name="Path 309" d="M46.584,37.517l-.639-.207a9.243,9.243,0,0,1-1.183-17.166l.972-.469-.542-.933a11.772,11.772,0,0,0-6.983-5.116c-3.634-.93-7.72-.107-12.149,2.447-1.875-1.138-8.1-4.418-13.058-1.13-.97.536-11.251,6.7-5.9,23.313.157.372,3.888,9.113,8.3,12.387a6.042,6.042,0,0,0,7.718.187c.6-.249,4.638-1.8,7.2.017a8.141,8.141,0,0,0,4.338,1.38,5.2,5.2,0,0,0,3.859-1.621,31.062,31.062,0,0,0,8.066-11.888l.075-.2Zm-9.4,11.6-.077.073c-2.193,2.3-5.518.1-5.641.018a7.211,7.211,0,0,0-4.244-1.233,13.506,13.506,0,0,0-4.992,1.064l-.163.092c-3.019,2.107-5.086.253-5.305.042l-.118-.1c-3.993-2.912-7.663-11.507-7.668-11.51C3.966,21.992,13.56,16.9,13.968,16.693l.11-.065c4.647-3.12,11.327,1.4,11.393,1.441l.533.366.552-.333c4.16-2.515,7.914-3.37,11.157-2.539a9.849,9.849,0,0,1,5.15,3.342,11.236,11.236,0,0,0,1.521,19.956A29.624,29.624,0,0,1,37.182,49.115Z" fill="#d32f2f"/>
  </g>
</svg>
