<svg xmlns="http://www.w3.org/2000/svg" width="45.026" height="43.334" viewBox="0 0 45.026 43.334">
  <path id="Path_338" data-name="Path 338" d="M45.4,4.418q0,.611-.705.611-1.316,0-5.358-2.914A35.855,35.855,0,0,1,28.764-10.528q-3.572,5.217-3.572,16.45a2.828,2.828,0,0,0,.047.423v.329q0,.423-1.034.611-3.055-.047-3.525-.094Q19.6,7,19.6,6.2a5.605,5.605,0,0,1,.094-.681,5.69,5.69,0,0,0,.094-.964,35.16,35.16,0,0,0-.611-4.888A89.069,89.069,0,0,0,16.5-11.562l-.376.188A27.405,27.405,0,0,1,8.836.047,23.219,23.219,0,0,1,4.371,3.619,6.753,6.753,0,0,1,1.316,4.794a2.558,2.558,0,0,1-.94-.235V3.948A21.769,21.769,0,0,0,9.635-2.726,28.16,28.16,0,0,0,15.51-14.288a53.091,53.091,0,0,0-5.146-10.834,23.591,23.591,0,0,0-6.745-7.5L.7-34.5q0-.517.752-.517A8.049,8.049,0,0,1,4.23-33.934a43.337,43.337,0,0,1,5.828,3.619,34,34,0,0,1,8.93,10.2q2.632-3.478,3.478-10.105a34.978,34.978,0,0,0,.611-4.23q.094-1.081.494-1.269A11.512,11.512,0,0,1,26.32-36a.769.769,0,0,0,.188-.047H26.7q.846,0,1.081,1.222.282,2.021.564,4.089a74.727,74.727,0,0,0,3.055,11.7,8.916,8.916,0,0,0,1.222-2.256,27.85,27.85,0,0,1,2.632-4.7,38.51,38.51,0,0,1,6.251-7q2.3-1.927,2.773-1.927.329,0,.846.658l.047.047L43.24-32.759a29.255,29.255,0,0,0-4.888,4.794,34.311,34.311,0,0,0-4.418,6.721,11.17,11.17,0,0,0-1.363,4.465,19.126,19.126,0,0,0,1.363,5.969,41.353,41.353,0,0,0,4.23,8.6A14.013,14.013,0,0,0,43.1,2.82Q45.4,4.042,45.4,4.418ZM27.918-12.267q0,.376-3.431-10.246-.282-.893-.658-2.444-.188-.8-.376-.8-.047,0-1.786,3.666-.517,1.034-1.316,2.3a3.991,3.991,0,0,0-.611,1.128q0,.094,1.5,3.807a77.148,77.148,0,0,1,3.2,9.635Q27.918-12.079,27.918-12.267Z" transform="translate(-0.376 36.049)" fill="#303f9f"/>
</svg>
