<svg xmlns="http://www.w3.org/2000/svg" width="35.727" height="35.727" viewBox="0 0 35.727 35.727">
  <path id="ic_call_24px" d="M10.185,18.462a30.067,30.067,0,0,0,13.08,13.08l4.367-4.367a1.973,1.973,0,0,1,2.025-.476,22.641,22.641,0,0,0,7.086,1.131,1.991,1.991,0,0,1,1.985,1.985v6.927a1.991,1.991,0,0,1-1.985,1.985A33.739,33.739,0,0,1,3,4.985,1.991,1.991,0,0,1,4.985,3h6.947a1.991,1.991,0,0,1,1.985,1.985,22.548,22.548,0,0,0,1.131,7.086,1.992,1.992,0,0,1-.5,2.025Z" transform="translate(-3 -3)" fill="#ffc107"/>
</svg>
