<svg xmlns="http://www.w3.org/2000/svg" width="19.454" height="21.039" viewBox="0 0 19.454 21.039">
  <path id="ic_settings_24px" d="M19.43,13.55a8.616,8.616,0,0,0,.07-1.031,8.617,8.617,0,0,0-.07-1.031l2.11-1.736a.55.55,0,0,0,.12-.673l-2-3.64a.491.491,0,0,0-.61-.231L16.56,6.26a7.228,7.228,0,0,0-1.69-1.031l-.38-2.788A.5.5,0,0,0,14,2H10a.5.5,0,0,0-.49.442L9.13,5.229A7.6,7.6,0,0,0,7.44,6.26L4.95,5.208a.477.477,0,0,0-.61.231l-2,3.64a.537.537,0,0,0,.12.673l2.11,1.736a8.769,8.769,0,0,0-.07,1.031,8.769,8.769,0,0,0,.07,1.031L2.46,15.286a.55.55,0,0,0-.12.673l2,3.64a.491.491,0,0,0,.61.231l2.49-1.052a7.228,7.228,0,0,0,1.69,1.031L9.51,22.6a.5.5,0,0,0,.49.442h4a.5.5,0,0,0,.49-.442l.38-2.788a7.6,7.6,0,0,0,1.69-1.031l2.49,1.052a.477.477,0,0,0,.61-.231l2-3.64a.55.55,0,0,0-.12-.673ZM12,16.2a3.6,3.6,0,0,1-3.5-3.682A3.6,3.6,0,0,1,12,8.838a3.6,3.6,0,0,1,3.5,3.682A3.6,3.6,0,0,1,12,16.2Z" transform="translate(-2.271 -2)" fill="#494e9f"/>
</svg>
